<?xml version="1.0" standalone="no"?>
<!DOCTYPE svg PUBLIC "-//W3C//DTD SVG 20010904//EN"
 "http://www.w3.org/TR/2001/REC-SVG-20010904/DTD/svg10.dtd">
<svg version="1.0" xmlns="http://www.w3.org/2000/svg"
 width="1173.000000pt" height="616.000000pt" viewBox="0 0 1173.000000 616.000000"
 preserveAspectRatio="xMidYMid meet">

<g transform="translate(0.000000,616.000000) scale(0.100000,-0.100000)"
fill="#000000" stroke="none">
<path d="M6 6127 c-37 -184 73 -373 280 -479 165 -85 297 -124 709 -208 138
-28 282 -59 320 -70 269 -75 1177 -211 2145 -321 119 -13 52 20 615 -304 132
-76 328 -188 435 -250 107 -62 303 -174 435 -250 132 -76 301 -173 375 -215
320 -182 525 -303 531 -312 4 -7 122 55 290 152 156 90 419 240 584 335 573
329 921 529 1175 675 l256 147 144 17 c1080 126 1773 231 2133 322 54 13 198
45 320 70 527 107 725 184 863 337 70 78 96 141 102 253 2 51 2 99 -1 107 -6
15 15 19 -527 -103 -435 -98 -1590 -359 -1930 -436 -206 -46 -454 -102 -550
-124 -96 -22 -374 -85 -618 -139 l-442 -100 -203 -115 c-111 -62 -338 -191
-505 -285 -166 -94 -306 -171 -311 -171 -4 0 -11 32 -15 71 -7 82 -32 206 -51
262 -12 34 -11 38 2 33 37 -14 104 -28 110 -23 11 12 -28 96 -71 155 -206 279
-802 545 -976 435 -33 -21 -60 -54 -60 -75 0 -22 5 -23 -87 8 -111 37 -248 44
-323 15 -88 -33 -163 -119 -185 -213 l-7 -28 69 0 c143 0 244 -55 296 -160 45
-91 45 -168 0 -264 -33 -69 -109 -172 -158 -215 -34 -29 -13 -37 -310 131
-400 228 -587 333 -690 391 -71 40 -125 62 -185 76 -47 11 -497 113 -1000 226
-503 114 -991 224 -1085 245 -93 21 -422 95 -730 165 -308 69 -677 153 -820
185 -143 32 -279 63 -302 68 -40 9 -41 9 -47 -21z m5767 -753 c63 -45 61 -58
-7 -51 -70 7 -166 49 -166 73 0 15 9 16 66 11 51 -4 76 -11 107 -33z"/>
<path d="M11075 5179 c-691 -131 -1628 -273 -2140 -324 -245 -24 -262 -25
-463 -35 l-193 -8 -522 -299 c-287 -164 -761 -436 -1054 -603 -302 -173 -527
-308 -520 -311 22 -13 261 -49 421 -64 230 -22 676 -18 676 6 0 4 -44 37 -97
72 -195 130 -225 161 -227 238 0 27 5 43 19 54 33 26 149 13 312 -34 178 -52
334 -85 494 -107 167 -24 523 -24 708 -1 146 19 381 64 394 76 4 4 -38 13 -93
20 -373 46 -809 132 -1004 198 -163 55 -192 80 -165 144 28 70 102 74 284 16
369 -119 947 -189 1365 -166 341 18 624 85 858 203 105 53 282 175 282 195 0
3 -109 3 -242 -2 -431 -13 -1523 -12 -1617 2 -183 27 -229 80 -106 122 32 11
116 13 415 11 519 -5 860 16 1210 74 503 83 880 232 1107 439 59 53 110 113
102 119 -2 1 -94 -15 -204 -35z"/>
<path d="M399 5182 c5 -10 43 -49 83 -88 215 -204 569 -351 1053 -438 364 -66
551 -79 1140 -81 533 -3 583 -7 609 -47 15 -25 -17 -55 -78 -74 -96 -29 -550
-37 -1281 -24 -362 6 -663 14 -667 16 -4 3 -8 1 -8 -5 0 -12 74 -68 180 -136
405 -260 1079 -337 1840 -209 212 35 370 71 495 112 143 47 222 50 261 10 36
-35 37 -83 3 -109 -51 -39 -280 -108 -525 -158 -132 -27 -492 -86 -621 -102
-57 -7 -103 -16 -103 -19 0 -18 348 -75 553 -91 335 -26 658 11 1030 117 189
54 283 65 323 39 24 -16 26 -21 21 -68 -4 -48 -9 -56 -65 -107 -33 -30 -105
-84 -161 -120 -55 -36 -101 -68 -101 -71 0 -26 582 -21 790 6 154 19 303 46
313 55 5 4 -90 64 -210 132 -120 69 -378 216 -573 328 -195 111 -416 238 -490
280 -74 42 -289 166 -478 274 l-343 196 -202 10 c-562 28 -1449 149 -2497 340
-151 27 -281 50 -288 50 -9 0 -10 -5 -3 -18z"/>
<path d="M3640 3480 l-81 -120 95 0 95 0 118 90 c65 50 136 104 157 120 l40
30 -171 0 -171 0 -82 -120z"/>
<path d="M830 2094 l0 -1137 38 6 c20 3 165 17 322 32 157 14 295 28 308 31
l22 4 0 445 0 444 43 5 c33 4 767 47 800 46 9 0 9 428 0 433 -5 2 -159 -2
-343 -9 -184 -7 -372 -13 -417 -13 l-83 -1 0 184 0 184 193 6 c105 3 328 9
495 12 l302 7 0 228 0 229 -840 0 -840 0 0 -1136z"/>
<path d="M2870 2192 l0 -1038 213 18 c442 36 1502 108 1595 108 l32 0 0 226 0
226 -112 -6 c-62 -4 -261 -13 -443 -22 -181 -8 -390 -18 -463 -22 -74 -4 -135
-5 -138 -3 -2 2 -4 89 -4 192 l0 187 73 6 c61 5 889 36 955 36 l22 0 0 199 c0
110 -3 201 -7 203 -8 4 -455 -5 -830 -16 l-213 -7 0 154 0 154 98 6 c53 4 219
7 368 7 149 0 359 3 467 7 l197 6 0 209 0 208 -905 0 -905 0 0 -1038z"/>
<path d="M5070 2265 l0 -965 113 0 c63 0 209 3 326 7 l212 6 -3 519 c-2 285
-2 518 -1 518 1 0 53 -66 115 -147 62 -82 125 -164 140 -183 84 -108 195 -251
357 -465 101 -132 186 -243 190 -247 3 -4 112 -12 241 -17 129 -6 274 -13 323
-17 l87 -6 0 981 0 981 -325 0 -325 0 -2 -524 -3 -523 -140 184 c-77 101 -169
221 -205 267 -74 96 -168 218 -190 248 -8 11 -29 37 -46 57 -17 20 -44 54 -60
76 -16 23 -60 80 -98 128 l-69 87 -319 0 -318 0 0 -965z"/>
<path d="M7630 2235 c0 -941 1 -995 18 -995 9 0 150 -11 312 -25 162 -14 310
-25 328 -25 l32 0 0 1020 0 1020 -345 0 -345 0 0 -995z"/>
<path d="M8665 3194 c45 -59 196 -282 436 -643 l228 -344 -42 -61 c-95 -135
-123 -175 -182 -256 -33 -47 -85 -119 -115 -160 -29 -41 -134 -184 -233 -318
-99 -134 -178 -245 -176 -246 2 -2 153 -18 334 -35 182 -17 351 -34 376 -37
l45 -5 94 143 c177 268 332 503 335 506 3 3 89 -142 210 -353 206 -361 211
-370 247 -378 34 -8 729 -69 734 -64 1 1 -17 34 -40 72 -24 39 -93 151 -153
250 -185 302 -345 562 -447 725 -53 85 -95 162 -93 171 2 8 38 67 79 130 117
179 154 236 328 514 89 143 185 295 211 337 27 42 49 79 49 82 0 4 -166 6
-369 6 l-370 0 -68 -122 c-38 -68 -121 -216 -184 -330 -62 -114 -117 -208
-120 -208 -3 0 -79 129 -170 287 -90 158 -175 306 -189 330 l-25 43 -379 0
-378 0 27 -36z"/>
<path d="M4220 739 c-71 -21 -110 -81 -110 -169 0 -27 -3 -51 -7 -51 -7 -1
-28 -3 -80 -8 -8 -1 -13 -15 -13 -35 0 -34 1 -35 48 -38 l47 -3 3 -205 c3
-220 3 -220 57 -220 54 0 54 0 57 220 l3 205 73 3 72 3 0 29 c0 33 -13 44 -55
45 -16 1 -45 2 -64 3 l-34 2 6 58 c8 80 30 96 114 87 l63 -7 0 30 c0 16 -7 35
-15 42 -19 16 -122 22 -165 9z"/>
<path d="M5078 740 c-21 -13 -118 -134 -118 -149 0 -12 69 -15 85 -3 6 4 39
38 75 75 53 55 62 69 50 77 -19 12 -70 12 -92 0z"/>
<path d="M6420 380 l0 -360 25 -6 c14 -3 36 -3 50 0 20 5 25 13 25 36 l0 30
53 -33 c108 -66 267 -42 335 52 63 87 66 248 5 335 -65 92 -209 118 -318 57
-30 -17 -57 -31 -60 -31 -3 0 -5 63 -5 140 l0 140 -55 0 -55 0 0 -360z m368
32 c74 -69 67 -238 -13 -300 -50 -39 -141 -26 -208 30 -27 22 -29 30 -34 113
-5 84 -3 92 19 117 39 45 88 67 149 67 49 1 61 -3 87 -27z"/>
<path d="M3291 519 c-29 -5 -73 -18 -97 -29 -38 -16 -44 -23 -44 -49 0 -16 4
-32 9 -36 5 -3 45 7 88 21 59 20 90 25 129 21 82 -8 102 -27 107 -102 l2 -30
-100 -6 c-128 -8 -179 -24 -228 -71 -38 -36 -39 -39 -35 -93 5 -63 24 -89 83
-116 75 -35 221 -19 278 29 16 14 17 13 17 -11 0 -30 32 -44 76 -33 l25 7 -3
199 c-3 182 -5 201 -24 227 -44 60 -166 91 -283 72z m197 -326 c-3 -43 -7 -50
-45 -76 -74 -52 -172 -45 -200 14 -32 67 31 108 165 109 l83 0 -3 -47z"/>
<path d="M4960 520 c-143 -25 -220 -112 -220 -250 0 -88 15 -134 56 -180 51
-56 121 -80 237 -80 96 0 194 20 208 42 12 18 11 56 -1 63 -6 4 -34 -1 -63
-11 -71 -24 -201 -24 -245 -1 -39 21 -72 71 -72 110 l0 27 179 0 c99 0 191 4
205 10 23 8 26 15 26 60 0 66 -18 107 -67 151 -59 53 -148 75 -243 59z m128
-84 c41 -21 64 -51 65 -88 l2 -33 -143 -3 c-126 -2 -143 -1 -149 14 -10 26 28
85 67 106 41 22 120 24 158 4z"/>
<path d="M7551 520 c-115 -17 -174 -56 -151 -100 6 -11 13 -20 15 -20 3 0 40
12 82 26 140 47 233 18 233 -71 l0 -42 -102 -6 c-178 -9 -258 -57 -258 -156 0
-90 70 -140 196 -141 61 0 81 5 128 29 l56 30 0 -23 c0 -25 17 -36 55 -36 44
0 47 17 43 212 -3 173 -4 185 -27 222 -40 64 -145 93 -270 76z m179 -330 c0
-46 -2 -51 -38 -75 -52 -34 -119 -42 -166 -20 -42 20 -54 51 -34 91 17 36 68
52 166 53 l72 1 0 -50z"/>
<path d="M8553 520 c-35 -8 -65 -26 -100 -59 l-23 -22 0 35 c0 30 -4 37 -25
42 -14 3 -36 3 -50 0 l-25 -6 0 -244 c0 -264 -2 -256 55 -256 55 0 55 0 55
171 l0 159 36 39 c44 49 87 65 142 53 23 -6 43 -7 47 -4 3 3 5 22 5 43 0 34
-3 39 -27 45 -53 11 -58 12 -90 4z"/>
<path d="M2427 506 c-103 -37 -157 -121 -157 -247 0 -102 33 -171 104 -214 42
-25 62 -31 128 -34 46 -2 99 2 125 10 80 22 122 74 94 118 -7 12 -18 9 -57
-14 -66 -38 -164 -46 -212 -15 -42 26 -65 80 -64 152 0 122 38 170 136 176 54
4 74 0 122 -22 55 -25 59 -26 71 -10 7 10 13 24 13 31 0 23 -45 61 -86 72 -53
15 -171 13 -217 -3z"/>
<path d="M5674 305 c-4 -8 -3 -26 0 -40 l7 -26 152 3 152 3 0 35 0 35 -153 3
c-129 2 -153 0 -158 -13z"/>
</g>
</svg>
